<mxfile host="app.diagrams.net" modified="2024-05-10T17:51:18.440Z" agent="Mozilla/5.0 (Windows NT 10.0; Win64; x64) AppleWebKit/537.36 (KHTML, like Gecko) Chrome/124.0.0.0 Safari/537.36" etag="alWULelA2Q5nZ5ywhCJx" version="24.2.8" type="device">
  <diagram name="Page-1" id="EwArHJSSQQGIOZNIg3iy">
    <mxGraphModel dx="880" dy="468" grid="1" gridSize="10" guides="1" tooltips="1" connect="1" arrows="1" fold="1" page="1" pageScale="1" pageWidth="850" pageHeight="1100" math="0" shadow="0">
      <root>
        <mxCell id="0" />
        <mxCell id="1" parent="0" />
        <mxCell id="yNQoHrnfDahQIXvLh-rF-3" value="" style="edgeStyle=orthogonalEdgeStyle;rounded=0;orthogonalLoop=1;jettySize=auto;html=1;" edge="1" parent="1" source="yNQoHrnfDahQIXvLh-rF-1" target="yNQoHrnfDahQIXvLh-rF-2">
          <mxGeometry relative="1" as="geometry" />
        </mxCell>
        <mxCell id="yNQoHrnfDahQIXvLh-rF-5" value="" style="edgeStyle=orthogonalEdgeStyle;rounded=0;orthogonalLoop=1;jettySize=auto;html=1;" edge="1" parent="1" source="yNQoHrnfDahQIXvLh-rF-1" target="yNQoHrnfDahQIXvLh-rF-4">
          <mxGeometry relative="1" as="geometry" />
        </mxCell>
        <mxCell id="yNQoHrnfDahQIXvLh-rF-1" value="User" style="rounded=1;whiteSpace=wrap;html=1;" vertex="1" parent="1">
          <mxGeometry x="80" y="80" width="120" height="60" as="geometry" />
        </mxCell>
        <mxCell id="yNQoHrnfDahQIXvLh-rF-2" value="" style="whiteSpace=wrap;html=1;rounded=1;" vertex="1" parent="1">
          <mxGeometry x="280" y="80" width="120" height="60" as="geometry" />
        </mxCell>
        <mxCell id="yNQoHrnfDahQIXvLh-rF-7" value="" style="edgeStyle=orthogonalEdgeStyle;rounded=0;orthogonalLoop=1;jettySize=auto;html=1;" edge="1" parent="1" source="yNQoHrnfDahQIXvLh-rF-4" target="yNQoHrnfDahQIXvLh-rF-6">
          <mxGeometry relative="1" as="geometry" />
        </mxCell>
        <mxCell id="yNQoHrnfDahQIXvLh-rF-4" value="New user?" style="rhombus;whiteSpace=wrap;html=1;" vertex="1" parent="1">
          <mxGeometry x="100" y="190" width="80" height="80" as="geometry" />
        </mxCell>
        <mxCell id="yNQoHrnfDahQIXvLh-rF-10" value="" style="edgeStyle=orthogonalEdgeStyle;rounded=0;orthogonalLoop=1;jettySize=auto;html=1;" edge="1" parent="1" source="yNQoHrnfDahQIXvLh-rF-6" target="yNQoHrnfDahQIXvLh-rF-9">
          <mxGeometry relative="1" as="geometry" />
        </mxCell>
        <mxCell id="yNQoHrnfDahQIXvLh-rF-6" value="Sign up" style="whiteSpace=wrap;html=1;" vertex="1" parent="1">
          <mxGeometry x="240" y="200" width="120" height="60" as="geometry" />
        </mxCell>
        <mxCell id="yNQoHrnfDahQIXvLh-rF-8" value="Yes" style="text;html=1;align=center;verticalAlign=middle;resizable=0;points=[];autosize=1;strokeColor=none;fillColor=none;" vertex="1" parent="1">
          <mxGeometry x="180" y="188" width="40" height="30" as="geometry" />
        </mxCell>
        <mxCell id="yNQoHrnfDahQIXvLh-rF-12" value="" style="edgeStyle=orthogonalEdgeStyle;rounded=0;orthogonalLoop=1;jettySize=auto;html=1;" edge="1" parent="1" source="yNQoHrnfDahQIXvLh-rF-9" target="yNQoHrnfDahQIXvLh-rF-11">
          <mxGeometry relative="1" as="geometry" />
        </mxCell>
        <mxCell id="yNQoHrnfDahQIXvLh-rF-9" value="Email verification/Account activation" style="whiteSpace=wrap;html=1;" vertex="1" parent="1">
          <mxGeometry x="440" y="200" width="120" height="60" as="geometry" />
        </mxCell>
        <mxCell id="yNQoHrnfDahQIXvLh-rF-11" value="" style="whiteSpace=wrap;html=1;" vertex="1" parent="1">
          <mxGeometry x="640" y="200" width="120" height="60" as="geometry" />
        </mxCell>
      </root>
    </mxGraphModel>
  </diagram>
</mxfile>
